<svg xmlns="http://www.w3.org/2000/svg" width="24" height="24"><path style="stroke:none;fill-rule:nonzero;fill:#fff;fill-opacity:1" d="M15.36 9.96c0 1.09-.669 1.669-1.31 2.24-.53.472-1.03.902-1.16 1.6l-.038.2h-1.75l.027-.281c.14-1.168.8-1.758 1.473-2.27.52-.398 1.007-.77 1.007-1.488a1.639 1.639 0 0 0-2.05-1.582c-.59.152-1.047.672-1.188 1.34l-.05.281H8.57l.058-.422c.2-1.398 1.152-2.527 2.422-2.867 1.05-.29 2.14-.082 2.98.57a3.326 3.326 0 0 1 1.328 2.68zM12 18c.55 0 1-.45 1-1s-.45-1-1-1-1 .45-1 1 .45 1 1 1zm0-15c-4.96 0-9 4.04-9 9s4.04 9 9 9 9-4.04 9-9-4.04-9-9-9m0-1c5.52 0 10 4.48 10 10s-4.48 10-10 10S2 17.52 2 12 6.48 2 12 2zm0 0"/></svg>