<svg xmlns="http://www.w3.org/2000/svg" width="24" height="24"><path style="stroke:none;fill-rule:nonzero;fill:#fff;fill-opacity:1" d="M18.77 11h-4.23l1.519-4.941C16.379 5.03 15.539 4 14.379 4c-.578 0-1.14.238-1.52.648L7 11H3v10h14.43c1.058 0 1.98-.672 2.191-1.61l1.34-6c.27-1.242-.781-2.39-2.191-2.39zM7 20H4v-8h3zm12.98-6.828-1.34 6c-.1.476-.609.828-1.21.828H8v-8.61l5.602-6.062c.187-.207.476-.328.777-.328.262 0 .5.11.633.3a.545.545 0 0 1 .09.47l-1.524 4.94L13.18 12h5.582c.41 0 .797.172 1.027.46a.794.794 0 0 1 .191.712zm0 0"/></svg>