<svg xmlns="http://www.w3.org/2000/svg" width="24" height="24">
    <path fill="white" d="M12 9c1.648 0 3 1.352 3 3s-1.352 3-3 3a3.01 3.01 0 0 1-3-3c0-1.648 1.352-3 3-3m0-1c-2.21 0-4 1.79-4 4s1.79 4 4 4 4-1.79 4-4-1.79-4-4-4zm1.219-5 .55 2.2.13.51.5.18c.613.231 1.19.56 1.722.981l.399.32.5-.14 2.171-.621 1.22 2.11-1.63 1.589-.37.36.077.511c.051.32.082.64.082.98 0 .34-.03.66-.082.98l-.078.509.371.36 1.63 1.593-1.22 2.11-2.171-.622-.5-.14-.399.32a5.89 5.89 0 0 1-1.723.98l-.5.18-.128.512L13.219 21H10.78l-.55-2.2-.13-.51-.5-.18a6.546 6.546 0 0 1-1.722-.989l-.399-.32-.5.14-2.171.618-1.207-2.118 1.628-1.59.372-.363-.082-.508A6.303 6.303 0 0 1 5.44 12c0-.328.028-.66.079-.98l.082-.508-.372-.364-1.628-1.59L4.82 6.45l2.168.621.5.14.403-.32a5.787 5.787 0 0 1 1.718-.992l.5-.18.13-.507L10.78 3h2.438M14 2h-4l-.738 2.96c-.73.27-1.403.661-2 1.142L4.34 5.27l-2 3.46 2.191 2.13c-.062.37-.09.75-.09 1.14 0 .39.028.77.09 1.14L2.34 15.27l2 3.46 2.922-.832c.597.48 1.27.872 2 1.141L10 22h4l.738-2.96c.73-.27 1.403-.661 2-1.142l2.922.832 2-3.46-2.191-2.13c.062-.37.09-.75.09-1.14 0-.39-.028-.77-.09-1.14l2.191-2.13-2-3.46-2.922.832a7.142 7.142 0 0 0-2-1.141zm0 0"/>
</svg>