<svg xmlns="http://www.w3.org/2000/svg" width="24" height="24"><path style="stroke:none;fill-rule:nonzero;fill:#fff;fill-opacity:1" d="M10 14.648V9.352L15 12zm7.77-4.328-1.2-.5L18 9.06A3.724 3.724 0 0 0 19.559 4a3.75 3.75 0 0 0-5.07-1.559L6 6.941a3.743 3.743 0 0 0-2 3.489 3.76 3.76 0 0 0 2.219 3.25c.031.011 1.203.5 1.203.5L6 14.93a3.75 3.75 0 1 0 3.512 6.629l8.5-4.5A3.733 3.733 0 0 0 20 13.57a3.762 3.762 0 0 0-2.23-3.25zm-.23 5.86-8.5 4.5c-1.34.71-3.009.199-3.72-1.14a2.753 2.753 0 0 1 1.14-3.72l2.04-1.082v-1.207l-.691-.281-1.11-.46A2.752 2.752 0 0 1 5 10.378 2.755 2.755 0 0 1 6.46 7.82l8.5-4.5c1.34-.71 3.009-.199 3.72 1.14.71 1.34.199 3.009-1.14 3.72L15.5 9.262v1.207l1.8.742a2.752 2.752 0 0 1 1.7 2.41 2.755 2.755 0 0 1-1.46 2.559zm0 0"/></svg>