<svg xmlns="http://www.w3.org/2000/svg" width="24" height="px" viewBox="0 0 24 24"><path style="stroke:none;fill-rule:nonzero;fill:#fff;fill-opacity:1" d="M17 4H6.57C5.5 4 4.59 4.672 4.38 5.61l-1.34 6C2.77 12.851 3.82 14 5.23 14h4.23l-1.519 4.941C7.621 19.97 8.461 21 9.621 21c.578 0 1.14-.238 1.52-.648L17 14h4V4zm-6.602 15.672a1.054 1.054 0 0 1-.777.328c-.262 0-.5-.11-.633-.3a.545.545 0 0 1-.09-.47l1.524-4.94.398-1.29H5.23c-.41 0-.8-.172-1.03-.46a.837.837 0 0 1-.18-.72l1.34-6c.1-.468.609-.82 1.21-.82H16v8.61zM20 13h-3V5h3zm0 0"/></svg>