<svg xmlns="http://www.w3.org/2000/svg" width="112" height="25"><path style="stroke:none;fill-rule:nonzero;fill:red;fill-opacity:1" d="M34.809 3.902A4.459 4.459 0 0 0 31.668.746C28.895 0 17.778 0 17.778 0S6.66 0 3.886.746A4.47 4.47 0 0 0 .742 3.902C0 6.687 0 12.5 0 12.5s0 5.813.742 8.598a4.47 4.47 0 0 0 3.145 3.156C6.66 25 17.777 25 17.777 25s11.118 0 13.891-.746a4.459 4.459 0 0 0 3.14-3.156c.747-2.785.747-8.598.747-8.598s-.004-5.813-.746-8.598zm0 0"/><path style="stroke:none;fill-rule:nonzero;fill:#fff;fill-opacity:1" d="m14.219 17.855 9.234-5.355-9.234-5.355zM43.063 16.254 39.07 1.774h3.48l1.4 6.562a61.82 61.82 0 0 1 .788 4.137h.102c.117-.817.383-2.188.789-4.114l1.45-6.586h3.48l-4.043 14.48v6.95h-3.457v-6.95zM51.605 22.742c-.699-.476-1.203-1.219-1.5-2.222-.296-1.004-.445-2.34-.445-4.012v-2.27c0-1.683.172-3.039.508-4.062.34-1.02.871-1.766 1.59-2.235.722-.464 1.668-.699 2.836-.699 1.156 0 2.078.238 2.773.711.692.477 1.203 1.227 1.524 2.234.324 1.016.484 2.368.484 4.051v2.27c0 1.672-.16 3.012-.473 4.023-.312 1.016-.82 1.754-1.523 2.223-.703.469-1.656.703-2.86.703-1.242.004-2.21-.238-2.914-.715zm3.942-2.453c.191-.512.293-1.344.293-2.5V12.91c0-1.12-.098-1.945-.293-2.46-.195-.524-.54-.782-1.031-.782-.473 0-.809.258-1.004.781-.196.52-.293 1.34-.293 2.461v4.88c0 1.155.093 1.991.281 2.5.188.51.523.769 1.016.769.492 0 .836-.258 1.03-.77zM70.703 23.203h-2.746l-.305-1.914h-.074c-.746 1.445-1.863 2.168-3.355 2.168-1.035 0-1.797-.34-2.29-1.02-.492-.683-.738-1.746-.738-3.19v-11.7h3.508v11.492c0 .7.078 1.195.23 1.492.153.297.407.45.762.45.305 0 .598-.098.88-.286.28-.187.484-.425.624-.715V7.543h3.504zm0 0"/><path style="stroke:none;fill-rule:nonzero;fill:#fff;fill-opacity:1" d="M80.234 4.61h-3.48v18.593H73.32V4.61h-3.484V1.777h10.398zm0 0"/><path style="stroke:none;fill-rule:nonzero;fill:#fff;fill-opacity:1" d="M88.7 23.203h-2.747l-.305-1.914h-.074c-.746 1.445-1.863 2.168-3.355 2.168-1.035 0-1.797-.34-2.29-1.02-.492-.683-.738-1.746-.738-3.19v-11.7H82.7v11.492c0 .7.078 1.195.23 1.492.153.297.407.45.762.45.305 0 .598-.098.88-.286.28-.187.484-.425.624-.715V7.543H88.7zM100.313 10.047c-.211-.985-.555-1.7-1.028-2.145-.476-.445-1.129-.664-1.96-.664-.645 0-1.247.184-1.805.551a3.719 3.719 0 0 0-1.297 1.441h-.028V.98h-3.379V23.2h2.899l.355-1.481h.078c.27.531.676.945 1.22 1.254a3.624 3.624 0 0 0 1.804.457c1.187 0 2.062-.551 2.621-1.645.559-1.101.84-2.816.84-5.148V14.16c0-1.75-.11-3.125-.32-4.113zm-3.215 6.39c0 1.141-.047 2.036-.141 2.68-.094.649-.25 1.11-.473 1.38-.218.273-.515.41-.89.41-.29 0-.555-.071-.801-.208a1.533 1.533 0 0 1-.598-.613v-8.887c.118-.426.325-.773.614-1.047.285-.273.601-.406.937-.406.36 0 .633.14.828.418.196.285.328.754.406 1.418.075.664.114 1.61.114 2.836v2.02zM105.61 17.34c0 1.004.03 1.758.09 2.262.058.5.179.867.366 1.097.188.23.477.344.864.344.523 0 .886-.207 1.082-.613.195-.41.3-1.09.316-2.043l3.027.18c.02.132.028.32.028.558 0 1.45-.395 2.531-1.184 3.242-.785.715-1.902 1.074-3.34 1.074-1.73 0-2.941-.543-3.636-1.632-.696-1.09-1.043-2.778-1.043-5.059v-2.734c0-2.348.36-4.063 1.082-5.145.718-1.082 1.949-1.625 3.699-1.625 1.203 0 2.125.223 2.77.664.644.445 1.097 1.133 1.363 2.07.261.938.394 2.23.394 3.883v2.684h-5.879zm.445-7.38c-.176.22-.293.583-.356 1.083-.058.504-.09 1.266-.09 2.289v1.125h2.567v-1.125c0-1.004-.035-1.766-.102-2.289-.066-.52-.191-.883-.367-1.098-.18-.21-.453-.32-.828-.32-.371.004-.649.113-.824.336zm0 0"/></svg>