<svg xmlns="http://www.w3.org/2000/svg" width="24" height="px" viewBox="0 0 24 24"><path style="stroke:none;fill-rule:nonzero;fill:#fff;fill-opacity:1" d="M10 20h4c0 1.102-.898 2-2 2-1.102 0-2-.898-2-2zm10-2.648V19H4v-1.648l2-1.883V10.32c0-2.922 1.559-5.218 4-5.98v-.38c0-1.42 1.488-2.5 2.988-1.76C13.641 2.52 14 3.23 14 3.96v.392c2.441.75 4 3.058 4 5.976v5.152zm-1 .418-2-1.88v-5.468c0-2.473-1.191-4.363-3.129-5.102a4.823 4.823 0 0 0-3.84.032C8.148 6.109 7 7.988 7 10.422v5.469L5 17.77V18h14zm0 0"/></svg>