<svg xmlns="http://www.w3.org/2000/svg" width="24" height="px" viewBox="0 0 24 24"><path style="stroke:none;fill-rule:nonzero;fill:#3ea6ff;fill-opacity:1" d="M12 2C6.48 2 2 6.48 2 12s4.48 10 10 10 10-4.48 10-10S17.52 2 12 2zm0 1c4.96 0 9 4.04 9 9 0 1.422-.34 2.762-.93 3.96-1.53-1.722-3.98-2.89-7.379-3.03A3.995 3.995 0 0 0 12 5a3.995 3.995 0 0 0-.691 7.93c-3.399.14-5.848 1.308-7.38 3.03C3.34 14.763 3 13.423 3 12c0-4.96 4.04-9 9-9zM9 9c0-1.648 1.352-3 3-3s3 1.352 3 3-1.352 3-3 3a3.01 3.01 0 0 1-3-3zm3 12c-3.16 0-5.941-1.64-7.55-4.121 1.562-1.95 4.16-2.98 7.55-2.98 3.39 0 5.988 1.03 7.55 2.98C17.942 19.359 15.16 21 12 21zm0 0"/></svg>