<svg xmlns="http://www.w3.org/2000/svg" width="24" height="24"><path style="stroke:none;fill-rule:nonzero;fill:#fff;fill-opacity:1" d="M14 12c0 1.102-.898 2-2 2-1.102 0-2-.898-2-2 0-1.102.898-2 2-2 1.102 0 2 .898 2 2zM8.48 8.45l-.71-.7A5.973 5.973 0 0 0 6 12c0 1.66.68 3.172 1.77 4.25l.71-.71A4.956 4.956 0 0 1 7 12c0-1.39.57-2.64 1.48-3.55zm7.75-.7-.71.71A4.956 4.956 0 0 1 17 12c0 1.39-.57 2.64-1.48 3.55l.71.712A6.021 6.021 0 0 0 18 12c0-1.66-.68-3.172-1.77-4.25zM5.648 5.629l-.699-.707A9.956 9.956 0 0 0 2 12a9.956 9.956 0 0 0 2.95 7.078l.71-.707A8.962 8.962 0 0 1 3 12a9 9 0 0 1 2.648-6.371zm13.403-.707-.711.707A8.962 8.962 0 0 1 21 12a9 9 0 0 1-2.648 6.371l.707.707a9.982 9.982 0 0 0-.008-14.156zm0 0"/></svg>