<svg xmlns="http://www.w3.org/2000/svg" width="24" height="24"><path style="stroke:none;fill-rule:nonzero;fill:#fff;fill-opacity:1" d="M14 12c0 1.102-.898 2-2 2-1.102 0-2-.898-2-2 0-1.102.898-2 2-2 1.102 0 2 .898 2 2zM6.36 6.328 4.95 4.922A9.956 9.956 0 0 0 2 12a9.956 9.956 0 0 0 2.95 7.078l1.41-1.406A7.976 7.976 0 0 1 4 12c0-2.21.898-4.219 2.36-5.672zm12.69-1.406-1.41 1.406A7.976 7.976 0 0 1 20 12c0 2.21-.898 4.219-2.36 5.672l1.41 1.406A9.956 9.956 0 0 0 22 12a9.956 9.956 0 0 0-2.95-7.078zM9.192 9.16 7.77 7.75A5.973 5.973 0 0 0 6 12c0 1.66.68 3.172 1.77 4.25l1.41-1.41A4.046 4.046 0 0 1 8 12c0-1.11.46-2.11 1.191-2.84zm7.04-1.41-1.41 1.41C15.538 9.89 16 10.89 16 12c0 1.11-.46 2.11-1.191 2.84l1.41 1.41A5.935 5.935 0 0 0 18 12c0-1.66-.68-3.172-1.77-4.25zm0 0"/></svg>