<svg xmlns="http://www.w3.org/2000/svg" viewBox="0 0 24 24" preserveAspectRatio="xMidYMid meet" focusable="false">
    <g fill="white">
        <path d="M14,12c0,1.1-0.9,2-2,2s-2-0.9-2-2s0.9-2,2-2S14,10.9,14,12z M6.36,6.33L4.95,4.92C3.13,6.73,2,9.24,2,12 s1.13,5.27,2.95,7.08l1.41-1.41C4.9,16.22,4,14.21,4,12S4.9,7.78,6.36,6.33z M19.05,4.92l-1.41,1.41C19.1,7.78,20,9.79,20,12 s-0.9,4.22-2.36,5.67l1.41,1.41C20.87,17.27,22,14.76,22,12S20.87,6.73,19.05,4.92z M9.19,9.16L7.77,7.75C6.68,8.83,6,10.34,6,12 s0.68,3.17,1.77,4.25l1.41-1.41C8.46,14.11,8,13.11,8,12S8.46,9.89,9.19,9.16z M16.23,7.75l-1.41,1.41C15.54,9.89,16,10.89,16,12 s-0.46,2.11-1.19,2.84l1.41,1.41C17.32,15.17,18,13.66,18,12S17.32,8.83,16.23,7.75z"></path>
    </g>
</svg>