<svg xmlns="http://www.w3.org/2000/svg" width="24" height="24"><path style="stroke:none;fill-rule:nonzero;fill:#fff;fill-opacity:1" d="M14.719 17.84c-.32.27-.828.531-1.23.66-1.34.328-2.41-.34-2.618-.46-.21-.11-.781-.38-.781-.38l.41-.129c1.34-.543 1.89-1.242 2.09-2.11.2-.843-.16-1.562-.309-2.39-.12-.691-.11-1.281.117-1.902a7.5 7.5 0 0 0 .122-.43l.128.41c.711 1.512 2.723 2.18 3.07 3.84.032.153.052.301.052.461.03.89-.372 1.852-1.051 2.43zm-2.32-13.5c-.118.082-.22.148-.31.219-2.987 2.312-2.91 5.93-2.308 8.55l.008.032.012.03c.058.349-.051.7-.281.958-.239.262-.579.41-.95.41-.441 0-.851-.2-1.218-.598a7.416 7.416 0 0 1-1.5-2.46c-.364.769-.75 1.98-.672 3.19.039.509.12 1 .25 1.43.18.598.43 1.16.75 1.649 1.05 1.66 2.879 2.82 4.78 3.05.419.052.849.079 1.259.079 1.34 0 3.25-.27 4.742-1.57 1.77-1.559 2.348-3.989 1.437-6.059a.999.999 0 0 0-.09-.191l-.038-.079a5.764 5.764 0 0 0-.75-1.14 6.03 6.03 0 0 0-.79-.828c-.3-.274-.64-.512-1-.774-.46-.328-.93-.668-1.378-1.09C12.98 7.828 12.3 6.11 12.398 4.34M14.41 2s-.2.2-.558.988c-.66 1.922-.153 3.953 1.34 5.39.73.692 1.609 1.173 2.359 1.84.32.294.62.59.89.93.36.422.66.891.91 1.383.047.098.098.2.137.297 1.121 2.55.364 5.473-1.726 7.313C16.23 21.469 14.219 22 12.219 22c-.469 0-.95-.031-1.41-.09-2.29-.281-4.418-1.66-5.63-3.57a7.467 7.467 0 0 1-1.167-3.602C3.89 12.86 4.68 11.11 5.09 10.43c.41-.692 1.55-2.18 1.55-2.18s0 .031-.011.09c-.219 1.77.371 3.539 1.59 4.879.152.172.27.222.34.222.062 0 .09-.043.082-.09C7.789 9.59 8.37 6 11.35 3.7c.59-.46 1.508-.937 1.977-1.18C13.801 2.282 14.41 2 14.41 2zm0 0"/></svg>