<svg xmlns="http://www.w3.org/2000/svg" viewBox="0 0 24 24" preserveAspectRatio="xMidYMid meet" focusable="false">
    <g fill="white">
        <path d="M19.48,12.83c-0.04-0.1-0.09-0.2-0.14-0.3c-0.25-0.49-0.55-0.96-0.91-1.38c-0.27-0.34-0.57-0.65-0.89-0.93 c-0.75-0.67-1.63-1.14-2.36-1.84c-1.49-1.44-2-3.46-1.34-5.39C14.2,2.2,14.41,2,14.41,2s-0.6,0.28-1.07,0.52 c-0.47,0.24-1.39,0.72-1.98,1.18C8.37,6,7.79,9.59,8.64,13.35c0.01,0.05-0.02,0.09-0.08,0.09c-0.07,0-0.18-0.06-0.34-0.22 C7,11.88,6.41,10.11,6.64,8.35c0.01-0.06,0.01-0.09,0.01-0.09S5.51,9.74,5.1,10.43c-0.41,0.69-1.2,2.43-1.08,4.31 c0.04,0.56,0.13,1.12,0.29,1.67c0.2,0.68,0.49,1.33,0.88,1.93c1.21,1.91,3.34,3.29,5.63,3.57c0.47,0.06,0.94,0.09,1.41,0.09 c2,0,4.01-0.53,5.53-1.87C19.84,18.3,20.6,15.38,19.48,12.83z M14.72,17.84c-0.32,0.27-0.83,0.53-1.23,0.66 c-1.34,0.33-2.41-0.34-2.62-0.46c-0.21-0.11-0.78-0.38-0.78-0.38s0.35-0.11,0.41-0.13c1.34-0.54,1.89-1.24,2.09-2.11 c0.2-0.84-0.16-1.56-0.31-2.39c-0.12-0.69-0.11-1.28,0.12-1.9c0.02-0.05,0.12-0.43,0.12-0.43s0.11,0.35,0.13,0.41 c0.71,1.51,2.72,2.18,3.07,3.84c0.03,0.15,0.05,0.3,0.05,0.46C15.8,16.3,15.4,17.26,14.72,17.84z"></path>
    </g>
</svg>