<svg xmlns="http://www.w3.org/2000/svg" width="24" height="24"><path style="stroke:none;fill-rule:nonzero;fill:#fff;fill-opacity:1" d="M19.48 12.828a7.05 7.05 0 0 0-1.05-1.68 7.17 7.17 0 0 0-.89-.93c-.75-.667-1.63-1.14-2.36-1.84-1.489-1.437-2-3.456-1.34-5.39.36-.789.57-.988.57-.988s-.601.281-1.07.52c-.469.242-1.39.718-1.98 1.18C8.37 6 7.79 9.59 8.64 13.351c.008.046-.019.09-.081.09-.07 0-.18-.063-.34-.223C7 11.879 6.41 10.109 6.64 8.352c.007-.063.007-.09.007-.09S5.512 9.738 5.102 10.43c-.41.691-1.204 2.43-1.082 4.308.039.563.128 1.121.289 1.672.203.68.492 1.328.882 1.93 1.207 1.91 3.34 3.289 5.63 3.57.468.059.94.09 1.41.09 2 0 4.007-.531 5.53-1.871 2.079-1.828 2.84-4.75 1.72-7.3zM14.72 17.84c-.32.27-.828.531-1.23.66-1.34.328-2.41-.34-2.618-.46-.21-.11-.781-.38-.781-.38l.41-.129c1.34-.543 1.89-1.242 2.09-2.11.2-.843-.16-1.562-.309-2.39-.12-.691-.11-1.281.117-1.902a7.5 7.5 0 0 0 .122-.43l.128.41c.711 1.512 2.723 2.18 3.07 3.84.032.153.052.301.052.461.03.89-.372 1.852-1.051 2.43zm0 0"/></svg>